<svg id="icon-163" xmlns="http://www.w3.org/2000/svg" width="100%" height="100%" x="0px" y="0px" viewBox="0 0 51.1 10.6" preserveAspectRatio="none"><style>.st0{display:none}</style><path class="st0" d="M18.6-14c-1.2 1-2.3 2.2-3.1 3.5C13.1-7 11.9-2.8 8.9.3c-4 4.1-7.1 9.5-7.2 15.4C1.5 22 5 27.9 10.9 29.9c6 2.1 12.9 1.1 18.8-.8.7-.2 1.5-.5 2.2-.8 3.4-1.4 6.5-3.4 9.3-5.7 2.5-2.1 4.9-4.5 6.3-7.5 1.6-3.3 1.4-7.2.8-10.8-.9-5.3-2.7-11.5-5.4-16.1-1.6-2.7-4.5-5.5-7.5-6.4-5.8-1.8-12.2.2-16.8 4.2z"/><path class="st0" d="M.6 7.1c0-.2 2.3-1 2.5-1.1 2.1-.8 4.2-1.4 6.3-1.8 5.1-1 10.3-.4 15.2 1.1 3.4 1 6.8 2.2 10.4 2.6 2.7.3 5.5 0 8.2-.5.6-.1 7.4-1.6 7.3-2.1.5 1.8.1 4.3.1 6.2V31.2H.6V7.1z"/><path class="st0" d="M.6 14.1l50-13v30H.6z"/><path class="st0" d="M.8.5C1.2-.4 2.3-1 3.4-1.2c1.7-.4 3.2.5 4.8.9 1.4.3 2.6-.3 3.9-.7 1.9-.6 3.9-.9 5.8-.5S21.6.1 23.5.3s3.6-.7 5.4-1.2c1.4-.4 2.8-.2 4.1.3 1.7.6 2.9.7 4.6-.1 1.2-.6 2.6-1 4-.9 1.3.1 2.3.9 3.5 1.3 1.5.5 2.8.1 4.3-.2.3-.1.6-.1.9-.1.1 0 .1 0 .1.1v16.3s-49.3.2-49.8.1c-.3 0 0-14.4 0-14.8.1-1.1-.1 1 0-.1C.7.8.7.6.8.5z"/><path d="M48.5 10.5c-.4 0-.8-.1-1.2-.4l-6.9-5.2-5 5c-.7.7-1.9.8-2.7.2l-6.9-5.2-5 5c-.7.7-1.9.8-2.7.2L11 4.8l-7 5.3c-.9.7-2.2.5-2.9-.4s-.5-2.2.4-2.9L9.8.6c.7-.5 1.8-.5 2.5 0l6.9 5.2 5-5c.7-.7 1.9-.8 2.7-.2l6.9 5.2 5-5c.7-.7 1.9-.8 2.7-.2l8.3 6.2c.9.7 1.1 2 .4 2.9-.5.5-1.1.8-1.7.8z"/></svg>